<?xml version="1.0" encoding="utf-8"?>
<!DOCTYPE svg PUBLIC "-//W3C//DTD SVG 1.1//EN" "http://www.w3.org/Graphics/SVG/1.1/DTD/svg11.dtd">
<svg version="1.1" id="Ebene_1" xmlns="http://www.w3.org/2000/svg" xmlns:xlink="http://www.w3.org/1999/xlink" x="0px" y="0px"
	 viewBox="0 0 135 68.7" enable-background="new 0 0 135 68.7" xml:space="preserve">
<g>
	<path fill="#3D3D3C" d="M132.6,65.2c-1.5,1.2-5.2-1-7.6-1.8c-5.8-2-10.3-2.1-17.6-2.5c-3.4-0.2-7-0.6-10-0.5
		c-7.6,0.4-16.2,3.7-24.3,4.9c-2.4,0.4-6.3,1.3-8.1,0.9c-0.7-0.2-1-0.8-1.9-1.4c-0.7-0.4-1.6-0.6-2.2-0.9c-3.6-1.8-7.9-5.2-11.4-7.1
		c-6.1-3.3-11.9-3.8-18.1-5.9c-3.9-4.3-13.3-1.2-19.5-2.4c-1.3-0.2,0.9-0.9-0.2-1.6c-2.4-1.9-4.8-3.7-7.2-5.6
		c-0.6,0.2-1.5-0.8-1.9,0c-0.8,0.2,0-1.1-0.7-1.6c1-0.7,2.3,0.5,3.2,1.2c2.3,1.6,6.7,6.3,9.5,6.9c2.7,0.6,7.7-0.2,10.1-1.9
		c3.9,2.3,8.7,3.3,13.2,4.3c2.5,0.6,5,0.5,6.9,2.1c1.7,1.5,11.6,7.1,17.4,9.7c0.8,0.1,0.3-0.8,0.3-1.2c2.9,7.4,20.1,0.6,27-1
		c0.7-1.2-1.9-1.3-1.3-2.4c1.3-0.8,3,0.8,4.1,0.8c3.4,0.2,6.9-0.1,10.4,0.2c3.3,0.3,6.6,0.9,10,0.5c1.5,0.1,0.2-0.6,0.8-1.1
		c1.5-0.1,2.1,0.8,3.6,0.2c4.7,2.4,10.6,3.4,15.2,5.9L132.6,65.2L132.6,65.2z"/>
	<g>
		
			<linearGradient id="SVGID_1_" gradientUnits="userSpaceOnUse" x1="1635.2393" y1="47.2564" x2="1651.7836" y2="35.6719" gradientTransform="matrix(-1 0 0 1 1700.1979 0)">
			<stop  offset="0" style="stop-color:#971B20"/>
			<stop  offset="0.1304" style="stop-color:#E99E23"/>
			<stop  offset="0.25" style="stop-color:#F9EF5C"/>
			<stop  offset="0.375" style="stop-color:#4CB748"/>
			<stop  offset="0.5" style="stop-color:#2AC0D0"/>
			<stop  offset="0.625" style="stop-color:#414B9F"/>
			<stop  offset="0.7554" style="stop-color:#9655A2"/>
			<stop  offset="0.875" style="stop-color:#C43493"/>
			<stop  offset="1" style="stop-color:#812269"/>
			<stop  offset="1" style="stop-color:#000000;stop-opacity:0"/>
		</linearGradient>
		
			<linearGradient id="SVGID_2_" gradientUnits="userSpaceOnUse" x1="1634.3845" y1="42.1774" x2="1657.3242" y2="42.1774" gradientTransform="matrix(-1 0 0 1 1700.1979 0)">
			<stop  offset="0" style="stop-color:#FFFFFF"/>
			<stop  offset="1" style="stop-color:#000000"/>
		</linearGradient>
		<path fill="url(#SVGID_1_)" stroke="url(#SVGID_2_)" stroke-width="0.2667" stroke-miterlimit="10" d="M64.7,26.7
			c0,0,0.6,2.8,0.8,6.2c0.2,3.4,0.4,9.6-2.4,16.1c-2.8,6.5-6.7,8.4-10.5,8.7c-2.9,0.2-4.4-1.6-5.5-3.1c-1.1-1.5-3.6-1.4-4.1-5.5
			c-0.6-4.1,1.2-8.3,5.3-13C52.4,31.3,64.1,27.4,64.7,26.7L64.7,26.7z"/>
		<path fill="#3D3D3C" d="M47.6,54.9L46.8,54l17.5-26.1"/>
	</g>
	<g>
		
			<linearGradient id="SVGID_3_" gradientUnits="userSpaceOnUse" x1="1654.0248" y1="21.8278" x2="1685.0951" y2="35.6611" gradientTransform="matrix(-1 0 0 1 1700.1979 0)">
			<stop  offset="0" style="stop-color:#971B20"/>
			<stop  offset="0.1304" style="stop-color:#E99E23"/>
			<stop  offset="0.25" style="stop-color:#F9EF5C"/>
			<stop  offset="0.375" style="stop-color:#4CB748"/>
			<stop  offset="0.5" style="stop-color:#2AC0D0"/>
			<stop  offset="0.625" style="stop-color:#414B9F"/>
			<stop  offset="0.7554" style="stop-color:#9655A2"/>
			<stop  offset="0.875" style="stop-color:#C43493"/>
			<stop  offset="1" style="stop-color:#812269"/>
			<stop  offset="1" style="stop-color:#000000;stop-opacity:0"/>
		</linearGradient>
		
			<linearGradient id="SVGID_4_" gradientUnits="userSpaceOnUse" x1="1648.4596" y1="29.5347" x2="1684.4086" y2="29.5347" gradientTransform="matrix(-1 0 0 1 1700.1979 0)">
			<stop  offset="0" style="stop-color:#FFFFFF"/>
			<stop  offset="1" style="stop-color:#000000"/>
		</linearGradient>
		<path fill="url(#SVGID_3_)" stroke="url(#SVGID_4_)" stroke-width="0.2667" stroke-miterlimit="10" d="M20.7,2.1
			c0,0-1.7,4.5-3,10.1c-1.3,5.6-3.2,15.9-0.2,27.5c3,11.7,9,15.8,15.2,17.2c4.8,1.1,7.7-1.6,9.9-3.8c2.2-2.2,6.1-1.9,8.1-8.5
			c2-6.6,0.4-13.7-5.1-22.7C40.1,12.9,21.5,3.4,20.7,2.1L20.7,2.1z"/>
		<path fill="#3D3D3C" d="M42.2,53.6l1.3-1.3L21,4"/>
	</g>
	<g>
		<linearGradient id="path18_1_" gradientUnits="userSpaceOnUse" x1="68.459" y1="36.9051" x2="101.9804" y2="36.9051">
			<stop  offset="0" style="stop-color:#971B20"/>
			<stop  offset="0.1304" style="stop-color:#E99E23"/>
			<stop  offset="0.25" style="stop-color:#F9EF5C"/>
			<stop  offset="0.375" style="stop-color:#4CB748"/>
			<stop  offset="0.5" style="stop-color:#2AC0D0"/>
			<stop  offset="0.625" style="stop-color:#414B9F"/>
			<stop  offset="0.7554" style="stop-color:#9655A2"/>
			<stop  offset="0.875" style="stop-color:#C43493"/>
			<stop  offset="1" style="stop-color:#812269"/>
			<stop  offset="1" style="stop-color:#000000;stop-opacity:0"/>
		</linearGradient>
		<linearGradient id="path18_2_" gradientUnits="userSpaceOnUse" x1="68.3256" y1="36.9051" x2="102.1138" y2="36.9051">
			<stop  offset="0" style="stop-color:#FFFFFF"/>
			<stop  offset="1" style="stop-color:#000000"/>
		</linearGradient>
		<path id="path18_6_" fill="url(#path18_1_)" stroke="url(#path18_2_)" stroke-width="0.2667" stroke-miterlimit="10" d="
			M91.4,54.7c-1.7,0.7-3.5,1.1-5.2,1.1c-2.8,0-5.3-0.5-7.5-1.4c-2.2-1-4.1-2.3-5.6-4c-1.5-1.7-2.7-3.7-3.5-6
			c-0.8-2.3-1.2-4.7-1.2-7.4c0-2.7,0.4-5.2,1.2-7.5c0.8-2.3,2-4.3,3.5-6.1c1.5-1.7,3.4-3.1,5.6-4.1c2.2-1,4.7-1.5,7.5-1.5
			c1.9,0,3.6,0.3,5.4,0.8c1.7,0.6,3.3,1.4,4.7,2.5c1.4,1.1,2.6,2.4,3.5,4c0.9,1.6,1.5,3.4,1.7,5.5h-7.6c-0.5-2-1.4-3.5-2.7-4.6
			c-1.4-1-3-1.5-4.9-1.5c-1.8,0-3.3,0.3-4.6,1c-1.2,0.7-2.3,1.6-3,2.8c-0.8,1.2-1.3,2.5-1.7,4c-0.4,1.5-0.5,3-0.5,4.6
			c0,1.5,0.2,3,0.5,4.4c0.4,1.4,0.9,2.7,1.7,3.9c0.8,1.1,1.8,2.1,3,2.8c1.2,0.7,2.8,1,4.6,1c2.6,0,4.7-0.7,6.1-2
			c1.4-1.3,2.3-3.3,2.5-5.8h-8v-5.9H102V55h-5l-0.8-4.1C94.7,52.8,93.1,54,91.4,54.7"/>
		<linearGradient id="path20_1_" gradientUnits="userSpaceOnUse" x1="106.9362" y1="36.9431" x2="132.4644" y2="36.9431">
			<stop  offset="0" style="stop-color:#971B20"/>
			<stop  offset="0.1304" style="stop-color:#E99E23"/>
			<stop  offset="0.25" style="stop-color:#F9EF5C"/>
			<stop  offset="0.375" style="stop-color:#4CB748"/>
			<stop  offset="0.5" style="stop-color:#2AC0D0"/>
			<stop  offset="0.625" style="stop-color:#414B9F"/>
			<stop  offset="0.7554" style="stop-color:#9655A2"/>
			<stop  offset="0.875" style="stop-color:#C43493"/>
			<stop  offset="1" style="stop-color:#812269"/>
			<stop  offset="1" style="stop-color:#000000;stop-opacity:0"/>
		</linearGradient>
		<linearGradient id="path20_2_" gradientUnits="userSpaceOnUse" x1="106.8028" y1="36.9431" x2="132.5978" y2="36.9431">
			<stop  offset="0" style="stop-color:#FFFFFF"/>
			<stop  offset="1" style="stop-color:#000000"/>
		</linearGradient>
		<path id="path20_6_" fill="url(#path20_1_)" stroke="url(#path20_2_)" stroke-width="0.2667" stroke-miterlimit="10" d="
			M114.9,18.9v29.4h17.6V55h-25.5V18.9H114.9"/>
	</g>
</g>
</svg>
